0.11m3min_grf.mot
version=1
nRows=15
nColumns 19
inDegrees=yes
endheader
time	1_ground_force_vx	1_ground_force_vy	1_ground_force_vz	1_ground_force_px	1_ground_force_py	1_ground_force_pz	1_ground_torque_x	1_ground_torque_y	1_ground_torque_z	2_ground_force_vx	2_ground_force_vy	2_ground_force_vz	2_ground_force_px	2_ground_force_py	2_ground_force_pz	2_ground_torque_x	2_ground_torque_y	2_ground_torque_z
            0.005000	          -26.789106	          927.110966	          -82.307352	           -0.284696	            0.006300	           -0.425483	           -0.136614	            4.727902	           -0.419735	          -24.549163	          815.196568	           92.129652	           -0.293871	            0.005550	           -0.733459	            0.054629	           -1.814035	           -0.205014
            0.005500	          -27.019869	          927.473948	          -82.901360	           -0.284617	            0.006300	           -0.425420	           -0.133297	            4.575518	           -0.408978	          -25.070372	          816.851030	           92.417353	           -0.293727	            0.005550	           -0.733340	            0.054727	           -1.783135	           -0.201741
            0.006000	          -27.250124	          928.196539	          -83.264547	           -0.284708	            0.006300	           -0.425387	           -0.134264	            4.573298	           -0.410251	          -25.306388	          817.400827	           92.935625	           -0.293692	            0.005551	           -0.733524	            0.053442	           -1.726182	           -0.196261
            0.006500	          -27.343212	          929.640613	          -83.716702	           -0.284593	            0.006298	           -0.425102	           -0.133587	            4.541828	           -0.409004	          -25.215305	          818.137393	           93.032070	           -0.294016	            0.005550	           -0.733474	            0.055989	           -1.816620	           -0.206572
            0.007000	          -27.527231	          928.200025	          -84.089278	           -0.284587	            0.006300	           -0.425544	           -0.132033	            4.452058	           -0.403329	          -25.778854	          818.503812	           92.986703	           -0.293980	            0.005550	           -0.733338	            0.053664	           -1.703897	           -0.193572
            0.007500	          -27.619552	          928.561582	          -84.316780	           -0.284672	            0.006300	           -0.425428	           -0.132350	            4.449553	           -0.404036	          -25.738467	          820.344004	           93.415599	           -0.293956	            0.005551	           -0.733586	            0.053642	           -1.709698	           -0.194690
            0.008000	          -27.894188	          928.741039	          -84.131901	           -0.284644	            0.006300	           -0.425405	           -0.131060	            4.363650	           -0.395290	          -25.787268	          820.895983	           93.511446	           -0.293923	            0.005551	           -0.733649	            0.056960	           -1.813238	           -0.206553
            0.008500	          -27.849503	          929.463880	          -84.541622	           -0.284584	            0.006299	           -0.425331	           -0.129579	            4.324622	           -0.393356	          -25.696165	          821.632382	           93.654826	           -0.293931	            0.005551	           -0.733669	            0.057901	           -1.851381	           -0.211032
            0.009000	          -27.987878	          930.366270	          -84.812559	           -0.284528	            0.006298	           -0.425115	           -0.127342	            4.233086	           -0.385890	          -25.463726	          822.184204	           94.079043	           -0.293980	            0.005551	           -0.733669	            0.057543	           -1.857963	           -0.212599
            0.009500	          -27.758680	          929.825744	          -84.861299	           -0.284470	            0.006299	           -0.425194	           -0.125181	            4.193160	           -0.382692	          -25.467111	          823.105471	           93.941552	           -0.293991	            0.005551	           -0.733738	            0.054959	           -1.776278	           -0.202728
            0.010000	          -27.897163	          928.205459	          -85.372334	           -0.284709	            0.006301	           -0.425595	           -0.125012	            4.159450	           -0.382568	          -25.322010	          821.817770	           93.702245	           -0.294160	            0.005550	           -0.733513	            0.053872	           -1.748411	           -0.199351
            0.010500	          -27.988867	          928.926307	          -85.323147	           -0.284515	            0.006300	           -0.425400	           -0.124424	            4.129516	           -0.379302	          -25.327244	          823.290226	           93.895213	           -0.294165	            0.005550	           -0.733716	            0.053713	           -1.746013	           -0.199131
            0.011000	          -27.805836	          928.926932	          -85.461173	           -0.284508	            0.006299	           -0.425323	           -0.122864	            4.104597	           -0.377622	          -25.094387	          823.659855	           93.755651	           -0.294109	            0.005550	           -0.733691	            0.054338	           -1.783509	           -0.203013
            0.011500	          -28.081367	          929.648532	          -85.594970	           -0.284446	            0.006298	           -0.425096	           -0.122245	            4.047001	           -0.372617	          -24.769718	          824.581469	           93.852653	           -0.294137	            0.005551	           -0.733896	            0.052389	           -1.744026	           -0.198502
            0.012000	          -28.081575	          927.666623	          -85.832749	           -0.284664	            0.006300	           -0.425427	           -0.119817	            3.958128	           -0.366227	          -24.488578	          824.582149	           93.946390	           -0.294133	            0.005551	           -0.733759	            0.052700	           -1.774515	           -0.202174
